<?xml version="1.0" encoding="utf-8"?>
<!-- Generator: Adobe Illustrator 24.0.0, SVG Export Plug-In . SVG Version: 6.00 Build 0)  -->
<svg version="1.1" id="Calque_1" xmlns="http://www.w3.org/2000/svg" xmlns:xlink="http://www.w3.org/1999/xlink" x="0px" y="0px"
	 viewBox="0 0 78.6 76.2" style="enable-background:new 0 0 78.6 76.2;" xml:space="preserve">
<style type="text/css">
	.st0{fill:#764ABC;}
</style>
<g>
	<path class="st0" d="M54.4,53.2c2.9-0.3,5.1-2.8,5-5.8S56.8,42,53.8,42h-0.2c-3.1,0.1-5.5,2.7-5.4,5.8c0.1,1.5,0.7,2.8,1.6,3.7
		c-3.4,6.7-8.6,11.6-16.4,15.7C28.1,70,22.6,71,17.1,70.3c-4.5-0.6-8-2.6-10.2-5.9c-3.2-4.9-3.5-10.2-0.8-15.5
		c1.9-3.8,4.9-6.6,6.8-8c-0.4-1.3-1-3.5-1.3-5.1C-2.9,46.3-1.4,60.5,3,67.2c3.3,5,10,8.1,17.4,8.1c2,0,4-0.2,6-0.7
		C39.2,72.1,48.9,64.5,54.4,53.2z"/>
	<path class="st0" d="M72,40.8C64.4,31.9,53.2,27,40.4,27h-1.6c-0.9-1.8-2.8-3-4.9-3h-0.2c-3.1,0.1-5.5,2.7-5.4,5.8
		c0.1,3,2.6,5.4,5.6,5.4h0.2c2.2-0.1,4.1-1.5,4.9-3.4h1.8c7.6,0,14.8,2.2,21.3,6.5c5,3.3,8.6,7.6,10.6,12.8
		c1.7,4.2,1.6,8.3-0.2,11.8c-2.8,5.3-7.5,8.2-13.7,8.2c-4,0-7.8-1.2-9.8-2.1c-1.1,1-3.1,2.6-4.5,3.6c4.3,2,8.7,3.1,12.9,3.1
		c9.6,0,16.7-5.3,19.4-10.6C79.7,59.3,79.5,49.3,72,40.8z"/>
	<path class="st0" d="M21.2,54.9c0.1,3,2.6,5.4,5.6,5.4H27c3.1-0.1,5.5-2.7,5.4-5.8c-0.1-3-2.6-5.4-5.6-5.4h-0.2
		c-0.2,0-0.5,0-0.7,0.1C21.8,42.4,20.1,35,20.7,27c0.4-6,2.4-11.2,5.9-15.5c2.9-3.7,8.5-5.5,12.3-5.6c10.6-0.2,15.1,13,15.4,18.3
		c1.3,0.3,3.5,1,5,1.5C58.1,9.5,48.1,1.1,38.5,1.1c-9,0-17.3,6.5-20.6,16.1c-4.6,12.8-1.6,25.1,4,34.8
		C21.4,52.7,21.1,53.8,21.2,54.9z"/>
</g>
</svg>
