<svg width="374" height="512" viewBox="0 0 374 512" fill="none" xmlns="http://www.w3.org/2000/svg">
<g clip-path="url(#clip0)">
<path d="M371.62 0C372.173 0.00262946 372.704 0.22367 373.095 0.615052C373.486 1.00643 373.707 1.53651 373.71 2.09V387.71C373.71 420.525 360.678 451.996 337.479 475.204C314.281 498.412 282.815 511.457 250 511.47C249.19 511.47 248.38 511.47 247.58 511.47C226.203 511.087 205.294 505.145 186.91 494.23V494.23C177.245 488.492 168.404 481.468 160.63 473.35C159.33 472 158.06 470.61 156.83 469.2L156.32 468.61C136.873 446.16 126.191 417.441 126.24 387.74V337.92C126.237 337.367 126.016 336.836 125.625 336.445C125.234 336.054 124.703 335.833 124.15 335.83H32.68C32.1265 335.833 31.5964 336.054 31.2051 336.445C30.8137 336.836 30.5926 337.367 30.59 337.92V387.71C30.6016 405.687 35.8073 423.278 45.5807 438.367C55.3541 453.455 69.2789 465.399 85.68 472.76C91.9987 484.938 99.6525 496.375 108.5 506.86C108.772 507.182 108.94 507.579 108.982 507.999C109.024 508.418 108.939 508.841 108.736 509.211C108.534 509.58 108.225 509.881 107.849 510.071C107.473 510.262 107.048 510.335 106.63 510.28C77.0633 506.144 49.9878 491.46 30.3928 468.936C10.7979 446.412 0.00389698 417.565 0 387.71L0 307.33C0.00262946 306.776 0.22367 306.246 0.615052 305.855C1.00643 305.464 1.53651 305.243 2.09 305.24H154.68C155.233 305.243 155.764 305.464 156.155 305.855C156.546 306.246 156.767 306.776 156.77 307.33V387.71C156.788 405.924 162.134 423.734 172.15 438.946C182.167 454.158 196.415 466.107 213.14 473.32C214.39 473.86 215.65 474.37 216.93 474.86C226.72 478.568 237.065 480.596 247.53 480.86C248.33 480.86 249.14 480.86 249.95 480.86C274.66 480.86 298.358 471.044 315.831 453.571C333.304 436.098 343.12 412.4 343.12 387.69V32.69C343.12 32.4125 343.065 32.1378 342.958 31.8817C342.851 31.6256 342.695 31.3932 342.498 31.198C342.301 31.0027 342.067 30.8484 341.81 30.7441C341.553 30.6397 341.277 30.5874 341 30.59H249.62C249.067 30.5926 248.536 30.8137 248.145 31.2051C247.754 31.5964 247.533 32.1265 247.53 32.68V351.68C247.536 361.934 246.27 372.148 243.76 382.09C243.69 382.359 243.568 382.611 243.4 382.832C243.233 383.053 243.023 383.239 242.783 383.378C242.543 383.518 242.278 383.608 242.003 383.644C241.728 383.681 241.448 383.662 241.18 383.59C234.535 381.757 228.628 377.895 224.283 372.544C219.937 367.193 217.37 360.62 216.94 353.74C216.935 353.687 216.935 353.633 216.94 353.58V2.09C216.943 1.54164 217.159 1.01601 217.544 0.625468C217.929 0.234922 218.452 0.0104393 219 0L371.62 0Z" fill="#EEEEEE"/>
<path d="M105.11 510.07L111.01 510.92L108.79 506.25" fill="#EEEEEE"/>
<path d="M247.53 353.07V384.82C236.35 384.28 227.99 376.45 227.99 376.45" fill="#EEEEEE"/>
<path d="M93.5103 507.75L114 511.49C114 511.49 118.68 480.33 84.6103 472.25C50.5403 464.17 76.0003 490.52 76.0003 490.52" fill="#EEEEEE"/>
<path d="M76.3701 467.94C76.3701 467.94 89.7701 474.15 92.3701 474.75C94.9701 475.35 90.2401 480.08 90.2401 480.08" fill="#EEEEEE"/>
<path d="M96.0996 508.37L113.95 511.49L106.75 503.46L99.0196 503.72L96.0996 508.37Z" fill="#EEEEEE"/>
<path d="M107.57 510.43L113.95 511.49L111.93 507.82L106.94 507.7" fill="#EEEEEE"/>
</g>
<defs>
<clipPath id="clip0">
<rect width="373.71" height="511.49" fill="white"/>
</clipPath>
</defs>
</svg>
