<?xml version="1.0" encoding="utf-8"?>
<!-- Generator: Adobe Illustrator 24.0.0, SVG Export Plug-In . SVG Version: 6.00 Build 0)  -->
<svg version="1.1" xmlns="http://www.w3.org/2000/svg" xmlns:xlink="http://www.w3.org/1999/xlink" x="0px" y="0px"
	 viewBox="0 0 362.8 411.4" style="enable-background:new 0 0 362.8 411.4;" xml:space="preserve">
<style type="text/css">
	.st0{display:none;}
	.st1{display:inline;fill:#E44D26;}
	.st2{display:inline;fill:#F16529;}
	.st3{display:inline;fill:#EBEBEB;}
	.st4{display:inline;fill:#FFFFFF;}
	.st5{display:inline;fill:#E6A329;}
	.st6{display:inline;fill:#F1BF22;}
	.st7{display:inline;}
	.st8{fill:#61DAFB;}
	.st9{fill:#5D87A1;}
	.st10{fill:#F8981D;}
	.st11{fill-rule:evenodd;clip-rule:evenodd;fill:#F8981D;}
	.st12{fill-rule:evenodd;clip-rule:evenodd;fill:#5D87A1;}
	.st13{clip-path:url(#SVGID_1_);}
	.st14{fill:url(#path3462_1_);}
	.st15{clip-path:url(#SVGID_2_);}
	.st16{fill:#777BB3;}
	.st17{clip-path:url(#SVGID_3_);}
	.st18{fill:#FFFFFF;}
	.st19{fill:#F9AE41;}
	.st20{fill:#EE4035;}
	.st21{fill:#4F91CD;}
	.st22{fill:#7AC043;}
	.st23{fill:none;}
	.st24{fill:#2C9AC8;}
</style>
<g id="Calque_1" class="st0">
	<title>HTML5 Logo</title>
	<path class="st1" d="M33,370.4L0,0h362.8l-33,370.2l-148.7,41.2"/>
	<path class="st2" d="M181.4,379.9V30.4h148.3l-28.3,316"/>
	<path class="st3" d="M67.4,75.7h114v45.4h-64.2l4.2,46.5h60v45.3H79.8 M81.8,235.7h45.6l3.2,36.3l50.8,13.6V333l-93.2-26"/>
	<path class="st4" d="M295,75.7H181.2v45.4h109.6 M286.7,167.6H181.2V213h56l-5.3,59l-50.7,13.6v47.2l93-25.8"/>
</g>
<g id="Calque_2" class="st0">
	<path class="st5" d="M362.8,0H0l34,368.8l147.4,41.8l147.4-41.8L362.8,0z"/>
	<path class="st6" d="M181.4,30v349.3l119.4-33.8l29-315.5L181.4,30z"/>
	<path class="st4" d="M276.4,75.3H92.8L80,213.4l0.3-0.9h156l-5.1,58.4l-49.8,14.3l-50.5-14.5l-3-35.4H82l6.5,70.7l92.8,26.4
		l92.9-26.4L287,167.3H121.5l2.1-46.2h114.8l1.7,26.5h46.2L276.4,75.3z"/>
	<path class="st3" d="M181.4,75.3H92.8L80,213.4l0.3-0.9h101.2v-45H128l2.1-46.2h51.3L181.4,75.3L181.4,75.3z M128,235.4H82
		l6.5,70.6l92.8,26.3v-47l-50.5-14.6L128,235.4z"/>
</g>
<g id="Calque_3" class="st0">
	<g class="st7">
		<path class="st8" d="M362.8,205.7c0-24-30.1-46.8-76.2-60.9c10.6-47,5.9-84.5-14.9-96.4c-4.8-2.8-10.4-4.1-16.6-4.1v16.5
			c3.4,0,6.1,0.7,8.4,1.9c10.1,5.8,14.4,27.7,11,56c-0.8,7-2.1,14.3-3.8,21.7c-14.5-3.5-30.3-6.3-47-8.1c-10-13.7-20.3-26.1-30.8-37
			c24.1-22.4,46.7-34.7,62.1-34.7V44.2l0,0c-20.3,0-47,14.5-73.9,39.6c-26.9-25-53.5-39.3-73.9-39.3v16.5c15.3,0,38,12.2,62.1,34.5
			c-10.4,10.9-20.7,23.2-30.5,36.9c-16.7,1.8-32.5,4.5-47,8.1c-1.7-7.4-3-14.6-3.8-21.4c-3.5-28.2,0.8-50.2,10.8-56.1
			c2.2-1.3,5.1-1.9,8.5-1.9V44.5l0,0c-6.2,0-11.8,1.3-16.7,4.1c-20.8,12-25.4,49.3-14.7,96.2C29.9,159.1,0,181.8,0,205.7
			c0,24,30.1,46.8,76.2,60.9c-10.6,47-5.9,84.5,14.9,96.4c4.8,2.8,10.4,4.1,16.6,4.1c20.3,0,47-14.5,73.9-39.6
			c26.9,25,53.5,39.3,73.9,39.3c6.2,0,11.8-1.3,16.7-4.1c20.8-12,25.4-49.3,14.7-96.2C332.9,252.5,362.8,229.7,362.8,205.7z
			 M266.5,156.4c-2.7,9.5-6.1,19.4-10,29.2c-3-5.9-6.2-11.8-9.7-17.7c-3.4-5.9-7-11.7-10.6-17.3C246.7,152.1,256.8,154,266.5,156.4z
			 M232.6,235.2c-5.8,10-11.7,19.4-17.8,28.2c-11,1-22.2,1.5-33.4,1.5c-11.2,0-22.3-0.5-33.3-1.4c-6.1-8.8-12.1-18.2-17.9-28.1
			c-5.6-9.7-10.7-19.5-15.4-29.4c4.6-9.9,9.8-19.8,15.3-29.5c5.8-10,11.7-19.4,17.8-28.2c11-1,22.2-1.5,33.4-1.5
			c11.2,0,22.3,0.5,33.3,1.4c6.1,8.8,12.1,18.2,17.9,28.1c5.6,9.7,10.7,19.5,15.4,29.4C243.3,215.6,238.2,225.5,232.6,235.2z
			 M256.5,225.6c4,9.9,7.4,19.8,10.2,29.4c-9.7,2.4-19.9,4.4-30.5,5.9c3.6-5.7,7.2-11.5,10.6-17.5
			C250.3,237.5,253.5,231.5,256.5,225.6z M181.5,304.5c-6.9-7.1-13.8-15-20.6-23.7c6.7,0.3,13.5,0.5,20.3,0.5c7,0,13.8-0.1,20.6-0.5
			C195.2,289.4,188.4,297.4,181.5,304.5z M126.5,260.9c-10.5-1.6-20.6-3.5-30.3-5.8c2.7-9.5,6.1-19.4,10-29.2
			c3,5.9,6.2,11.8,9.7,17.7C119.4,249.5,122.9,255.3,126.5,260.9z M181.2,107c6.9,7.1,13.8,15,20.6,23.7c-6.7-0.3-13.5-0.5-20.3-0.5
			c-7,0-13.8,0.1-20.6,0.5C167.5,122,174.4,114.1,181.2,107z M126.5,150.6c-3.6,5.7-7.2,11.5-10.6,17.5c-3.4,5.9-6.6,11.8-9.6,17.7
			c-4-9.9-7.4-19.8-10.2-29.4C105.7,154.1,115.9,152.1,126.5,150.6z M59.5,243.2c-26.2-11.2-43.1-25.8-43.1-37.4
			s16.9-26.3,43.1-37.4c6.4-2.7,13.3-5.2,20.5-7.5c4.2,14.5,9.8,29.6,16.6,45c-6.8,15.4-12.3,30.4-16.4,44.8
			C72.9,248.4,66,245.9,59.5,243.2z M99.3,348.8c-10.1-5.8-14.4-27.7-11-56c0.8-7,2.1-14.3,3.8-21.7c14.5,3.5,30.3,6.3,47,8.1
			c10,13.7,20.3,26.1,30.8,37c-24.1,22.4-46.7,34.7-62.1,34.7C104.3,350.8,101.5,350.1,99.3,348.8z M274.7,292.5
			c3.5,28.2-0.8,50.2-10.8,56.1c-2.2,1.3-5.1,1.9-8.5,1.9c-15.3,0-38-12.2-62.1-34.5c10.4-10.9,20.7-23.2,30.5-36.9
			c16.7-1.8,32.5-4.5,47-8.1C272.6,278.4,273.9,285.6,274.7,292.5z M303.2,243.2c-6.4,2.7-13.3,5.2-20.5,7.5
			c-4.2-14.5-9.8-29.6-16.6-45c6.8-15.4,12.3-30.4,16.4-44.8c7.3,2.3,14.3,4.8,20.8,7.5c26.2,11.2,43.1,25.8,43.1,37.4
			C346.3,217.3,329.4,232.1,303.2,243.2z"/>
		<path class="st8" d="M107.3,44.5L107.3,44.5L107.3,44.5z"/>
		<circle class="st8" cx="181.3" cy="205.7" r="33.8"/>
		<path class="st8" d="M255,44.2L255,44.2L255,44.2z"/>
	</g>
</g>
<g id="Calque_4" class="st0">
	<g class="st7">
		<path class="st9" d="M87.4,326.6h-14c-0.4-22.2-1.9-43.3-4.1-63.1H69l-21.4,63.1H37.1L16,263.5h-0.2c-1.5,19-2.6,39.8-3,63.1H0
			c0.9-28.2,2.8-54.5,6.3-79h17.3l20.3,58.2H44l20.3-58.2h16.8C84.6,276.4,86.7,302.7,87.4,326.6"/>
		<path class="st9" d="M148.2,268.2c-5.6,29.2-13.2,50.4-22.4,63.7c-7.3,10.2-15.3,15.3-23.9,15.3c-2.4,0-5.2-0.6-8.6-2V338
			c1.7,0.2,3.7,0.4,5.8,0.4c4.1,0,7.3-1,9.7-3.3c3-2.7,4.5-5.5,4.5-8.6c0-2.2-1.1-6.7-3.5-13.5L94.5,268h13.8l11,33.7
			c2.4,7.8,3.5,13.1,3,16.1c6-15.3,10.1-31.8,12.7-49.8h13.2V268.2z"/>
		<polygon class="st10" points="334.3,326.6 294.4,326.6 294.4,247.4 307.8,247.4 307.8,316.8 334.3,316.8 		"/>
		<path class="st11" d="M284.1,328.4l-15.3-7.1c1.3-1,2.6-2.2,3.9-3.5c6.5-7.3,9.7-18,9.7-32.2c0-26.1-10.8-39.2-32.6-39.2
			c-10.6,0-19,3.3-24.8,10c-6.5,7.3-9.7,18-9.7,32c0,13.9,2.8,24.1,8.6,30.6c5.2,5.9,13.2,8.8,23.9,8.8c3.9,0,7.5-0.4,11-1.4
			l20.1,11L284.1,328.4z M234.5,310.7c-3.5-5.1-5.2-13.5-5.2-24.9c0-20,6.5-29.8,19.2-29.8c6.7,0,11.6,2.4,14.7,7.1
			c3.5,5.1,5.2,13.3,5.2,24.7c0,20-6.5,30.2-19.2,30.2C242.4,317.8,237.5,315.6,234.5,310.7"/>
		<path class="st10" d="M209.4,304.5c0,6.7-2.6,12.2-7.8,16.5s-12.1,6.5-20.9,6.5c-8.2,0-16.2-2.4-23.7-7.3l3.7-6.7
			c6.7,3.1,12.5,4.7,17.9,4.7c5,0,9.1-1,11.9-3.1s4.5-5.1,4.5-8.8c0-4.7-3.5-8.8-9.7-12c-5.8-3.1-17.5-9.4-17.5-9.4
			c-6.3-4.3-9.5-9-9.5-16.7c0-6.3,2.4-11.6,7.1-15.5c4.7-3.9,10.8-5.9,18.3-5.9c7.8,0,14.9,2,21.1,5.9l-3.2,6.7
			c-5.4-2.2-10.8-3.3-16.2-3.3c-4.3,0-7.5,1-9.9,2.9c-2.4,2-3.7,4.5-3.7,7.5c0,4.7,3.5,8.8,10.1,12.2c6,3.1,17.9,9.6,17.9,9.6
			C206.2,292.3,209.4,297,209.4,304.5"/>
		<path class="st12" d="M350.9,221.1c-8-0.2-14.2,0.6-19.6,2.7c-1.5,0.6-3.9,0.6-4.1,2.4c0.9,0.8,0.9,2,1.7,3.1
			c1.3,1.8,3.2,4.5,5.2,5.9c2.2,1.4,4.3,3.1,6.5,4.5c3.9,2.2,8.4,3.7,12.3,5.9c2.2,1.4,4.5,3.1,6.7,4.5c1.1,0.8,1.7,2,3.2,2.4v-0.2
			c-0.6-0.8-0.9-2-1.5-3.1c-1.1-1-1.9-1.8-3-2.9c-3-3.7-6.5-6.9-10.6-9.6c-3.2-2-10.4-4.9-11.6-8.6c0,0,0,0-0.2-0.2
			c2.2-0.2,4.7-1,6.9-1.6c3.5-0.8,6.5-0.6,10.1-1.4c1.7-0.4,3.2-0.8,5-1.4v-0.8c-1.7-1.6-3.2-4.1-5-5.7c-5.2-4.3-10.8-8.4-16.6-11.8
			c-3.2-1.8-7.1-3.1-10.6-4.7c-1.3-0.6-3.2-0.8-3.9-1.8c-1.7-2-2.8-4.9-4.1-7.3c-3-5.3-5.8-11-8.2-16.5c-1.7-3.7-3-7.3-5.2-10.8
			c-10.4-16.3-21.8-26.1-39-35.7c-3.7-2-8.2-2.9-12.9-3.9c-2.6,0-5-0.2-7.5-0.4c-1.7-0.6-3.2-2.4-4.7-3.3c-5.8-3.5-20.5-10.8-24.8-1
			c-2.8,6.1,4.1,12.2,6.3,15.5c1.7,2.2,3.9,4.7,5.2,7.1c0.6,1.6,0.9,3.3,1.7,5.1c1.5,4.3,3,9,5.2,12.9c1.1,2,2.4,4.1,3.7,5.9
			c0.9,1,2.2,1.4,2.6,3.3c-1.5,1.8-1.5,4.7-2.4,7.1c-3.7,10.8-2.2,24.1,3,32c1.5,2.4,5.4,7.5,10.6,5.7c4.5-1.6,3.5-7.1,4.7-11.8
			c0.2-1.2,0-1.8,0.6-2.7v0.2c1.5,2.7,2.8,5.3,4.1,8c3.2,4.7,8.6,9.6,13.2,12.9c2.4,1.6,4.3,4.7,7.3,5.7v-0.2h-0.2
			c-0.6-0.8-1.5-1.2-2.4-1.8c-1.7-1.6-3.9-3.9-5.2-5.7c-4.3-5.3-8-11.2-11.2-17.3c-1.7-3.1-3-6.1-4.3-9.2c-0.6-1.2-0.6-2.9-1.5-3.5
			c-1.5,2-3.7,3.9-4.7,6.5c-1.9,4.1-2.2,9.2-2.8,14.5c-0.4,0-0.2,0-0.4,0.2c-3.2-0.8-4.3-3.9-5.6-6.5c-3-6.7-3.5-17.8-0.9-25.5
			c0.6-2,3.7-8.4,2.6-10.2c-0.6-1.8-2.6-2.9-3.7-4.3c-1.3-1.8-2.8-4.1-3.7-6.1c-2.4-5.3-3.7-11.2-6.3-16.5c-1.3-2.4-3.2-5.1-5-7.3
			c-1.9-2.7-4.1-4.5-5.6-7.3c-0.4-1-1.3-2.9-0.4-3.9c0.2-0.8,0.6-1,1.5-1.2c1.3-1,5,0.2,6.3,0.8c3.7,1.4,6.9,2.9,9.9,4.7
			c1.5,1,3,2.9,4.7,3.3h2.2c3.2,0.6,6.9,0.2,9.9,1c5.4,1.6,10.1,4.1,14.5,6.5c13.2,8,24.2,19.2,31.5,32.6c1.3,2.2,1.7,4.3,2.8,6.5
			c2.2,4.7,4.7,9.4,6.9,14.1c2.2,4.5,4.1,9,7.1,12.9c1.5,2,7.5,3.1,10.4,4.1c1.9,0.8,5.2,1.6,6.9,2.7c3.5,2,6.9,4.3,10.1,6.5
			C345.8,216.8,350.7,219,350.9,221.1"/>
		<path class="st12" d="M248,138c-1.7,0-3,0.2-4.1,0.4v0.2h0.2c0.9,1.4,2.2,2.7,3.2,3.9c0.9,1.4,1.5,3.1,2.4,4.5l0.2-0.2
			c1.5-1,2.2-2.4,2.2-4.7c-0.6-0.6-0.6-1.4-1.3-2C250.2,139.3,248.9,138.8,248,138"/>
		<path class="st10" d="M360.6,326.6h2.2V317h-3.2l-2.6,6.5l-2.8-6.5h-3v9.6h1.9v-7.3h0.2l3,7.3h1.5l2.8-7.3V326.6z M343.8,326.6
			h2.2v-8h2.8V317h-8.2v1.6h3v8H343.8z"/>
	</g>
	<g id="g3438" transform="matrix(1.25,0,0,-1.25,-4.4,394.29875)" class="st7">
		<g id="g3440">
			<g>
				<g>
					<defs>
						<path id="SVGID_7_" d="M14.9,216.4c0-20.5,33.5-37.2,74.7-37.2l0,0c41.2,0,74.7,16.7,74.7,37.2l0,0
							c0,20.5-33.5,37.2-74.7,37.2l0,0C48.4,253.7,14.9,237,14.9,216.4"/>
					</defs>
					<clipPath id="SVGID_1_">
						<use xlink:href="#SVGID_7_"  style="overflow:visible;"/>
					</clipPath>
					<g id="g3442" class="st13">
						<g id="g3448">
							<g id="g3450">
								
									<radialGradient id="path3462_1_" cx="193.7462" cy="341.1689" r="0.1397" gradientTransform="matrix(1097.645 0 0 -1040.3846 -212604.7969 355187.5)" gradientUnits="userSpaceOnUse">
									<stop  offset="0" style="stop-color:#AEB2D5"/>
									<stop  offset="0.3" style="stop-color:#AEB2D5"/>
									<stop  offset="0.75" style="stop-color:#484C89"/>
									<stop  offset="1" style="stop-color:#484C89"/>
								</radialGradient>
								<path id="path3462" class="st14" d="M14.9,216.4c0-20.5,33.5-37.2,74.7-37.2l0,0c41.2,0,74.7,16.7,74.7,37.2l0,0
									c0,20.5-33.5,37.2-74.7,37.2l0,0C48.4,253.7,14.9,237,14.9,216.4"/>
							</g>
						</g>
					</g>
				</g>
			</g>
		</g>
		<g id="g3464">
			<g>
				<g>
					<defs>
						<rect id="SVGID_9_" x="-32" y="151.6" width="243.3" height="129.8"/>
					</defs>
					<clipPath id="SVGID_2_">
						<use xlink:href="#SVGID_9_"  style="overflow:visible;"/>
					</clipPath>
					<g id="g3466" class="st15">
						<g id="g3472" transform="translate(288,27.3594)">
							<path id="path3474" class="st16" d="M-198.4,154.5c39.7,0,71.8,15.4,71.8,34.5s-32.1,34.5-71.8,34.5s-71.8-15.4-71.8-34.5
								C-270.2,170.1-238,154.5-198.4,154.5"/>
						</g>
					</g>
				</g>
			</g>
		</g>
		<g id="g3476">
			<g>
				<g>
					<defs>
						<rect id="SVGID_11_" x="-32" y="151.6" width="243.3" height="129.8"/>
					</defs>
					<clipPath id="SVGID_3_">
						<use xlink:href="#SVGID_11_"  style="overflow:visible;"/>
					</clipPath>
					<g id="g3478" class="st17">
						<g id="g3484" transform="translate(161.7344,145.3066)">
							<path id="path3486" d="M-106.3,66.9c3.3,0,5.6,0.6,7.2,1.7c1.5,1.1,2.5,3.1,3.1,5.7c0.6,2.6,0.4,4.2-0.6,5.1
								c-1,0.9-2.9,1.5-6,1.5h-5.2l-2.9-14.1h4.5V66.9z M-123.3,49.5c-0.2,0-0.4,0.2-0.6,0.4c-0.2,0.2-0.2,0.4-0.2,0.6l7.7,37.4
								c0,0.4,0.4,0.6,0.8,0.6h16.4c5.2,0,9.1-1.3,11.4-4c2.5-2.6,3.3-6.4,2.3-11c-0.4-1.8-1-3.7-1.9-5.3c-1-1.7-2.1-3.1-3.7-4.4
								c-1.7-1.7-3.9-2.8-6-3.5s-5-0.9-8.3-0.9h-6.8l-1.9-9.4c0-0.4-0.4-0.6-0.8-0.6h-8.5V49.5z"/>
						</g>
						<g id="g3488" transform="translate(159.2236,197.3071)">
							<path id="path3490" class="st18" d="M-104.4,28.1h4.5c3.7,0,4.8-0.7,5.2-1.3c0.8-0.7,0.8-2.4,0.4-4.6
								c-0.6-2.6-1.5-4.2-2.9-5.3s-3.7-1.5-6.8-1.5h-3.3L-104.4,28.1z M-96.6,37.1h-16.4c-0.8,0-1.4-0.6-1.5-1.3l-7.7-37.4
								c0-0.4,0-0.9,0.4-1.3s0.8-0.6,1.2-0.6h8.5c0.8,0,1.4,0.6,1.5,1.3l1.7,8.6h6c3.5,0,6.2,0.4,8.5,1.1c2.3,0.7,4.5,1.8,6.4,3.7
								c1.5,1.3,2.9,2.9,3.9,4.6c1,1.7,1.7,3.5,2.1,5.5c1,5,0.2,8.8-2.5,11.7C-87.2,35.8-91.2,37.1-96.6,37.1 M-108.8,14.2h5.2
								c3.5,0,6,0.6,7.7,1.8c1.7,1.3,2.9,3.3,3.5,6.2c0.6,2.8,0.4,4.8-0.8,5.9c-1.2,1.1-3.3,1.7-6.6,1.7h-5.8L-108.8,14.2
								 M-96.6,35.7c5,0,8.5-1.3,10.8-3.7s2.9-5.9,2.1-10.3c-0.4-1.8-1-3.5-1.9-5c-1-1.5-2.1-2.9-3.5-4.2c-1.7-1.5-3.7-2.6-5.8-3.3
								s-4.8-0.9-7.9-0.9h-7.4l-2.1-9.9h-8.5l7.7,37.4h16.4"/>
						</g>
						<g id="g3492" transform="translate(311.583,116.3066)">
							<path id="path3494" d="M-215.6,88.4c-0.2,0-0.4,0.2-0.6,0.4c-0.2,0.2-0.2,0.4-0.2,0.6l3.5,16.5c0.4,1.7,0.2,2.8-0.2,3.1
								c-0.2,0.4-1.2,0.7-3.7,0.7h-6.2l-4.3-20.7c0-0.4-0.4-0.6-0.8-0.6h-8.5c-0.2,0-0.4,0.2-0.6,0.4c-0.2,0.2-0.2,0.4-0.2,0.6
								l7.7,37.4c0,0.4,0.4,0.6,0.8,0.6h8.5c0.2,0,0.4-0.2,0.6-0.4c0.2-0.2,0.2-0.4,0.2-0.6l-1.9-9h6.6c5,0,8.5-0.9,10.4-2.6
								c1.9-1.8,2.7-4.6,1.9-8.4l-3.5-17.4c0-0.4-0.4-0.6-0.8-0.6L-215.6,88.4L-215.6,88.4z"/>
						</g>
						<g id="g3496" transform="translate(293.6611,271.0571)">
							<path id="path3498" class="st18" d="M-202.4-26.6h-8.5c-0.8,0-1.4-0.6-1.5-1.3l-7.7-37.4c0-0.4,0-0.9,0.4-1.3
								c0.4-0.4,0.8-0.6,1.2-0.6h8.5c0.8,0,1.4,0.6,1.5,1.3l4.1,20.2h5.4c2.5,0,3.1-0.6,3.1-0.6c0.2-0.2,0.4-0.9,0-2.6l-3.5-16.5
								c0-0.4,0-0.9,0.4-1.3s0.8-0.6,1.2-0.6h8.7c0.8,0,1.4,0.6,1.5,1.3l3.5,17.4c0.8,4,0.2,7.2-2.1,9.2c-2.1,1.8-5.8,2.8-11,2.8
								h-5.6l1.7,8.1c0,0.4,0,0.9-0.4,1.3C-201.6-26.8-202-26.6-202.4-26.6 M-202.4-28.1l-2.1-9.9h7.5c4.8,0,8.1-0.7,9.9-2.4
								c1.7-1.7,2.3-4.2,1.5-7.7l-3.5-17.4h-8.7l3.5,16.5c0.4,1.8,0.2,3.1-0.4,3.9s-2.1,1.1-4.3,1.1h-6.8l-4.5-21.5h-8.5l7.7,37.4
								L-202.4-28.1"/>
						</g>
						<g id="g3500" transform="translate(409.5498,145.3066)">
							<path id="path3502" d="M-286.9,66.9c3.3,0,5.6,0.6,7.2,1.7c1.5,1.1,2.5,3.1,3.1,5.7c0.6,2.6,0.4,4.2-0.6,5.1
								c-1,0.9-2.9,1.5-6,1.5h-5.2l-2.9-14.1h4.5V66.9z M-304.2,49.5c-0.2,0-0.4,0.2-0.6,0.4c-0.2,0.2-0.2,0.4-0.2,0.6l7.7,37.4
								c0,0.4,0.4,0.6,0.8,0.6h16.4c5.2,0,9.1-1.3,11.4-4c2.5-2.6,3.3-6.4,2.3-11c-0.4-1.8-1-3.7-1.9-5.3c-1-1.7-2.1-3.1-3.7-4.4
								c-1.7-1.7-3.9-2.8-6-3.5s-5-0.9-8.3-0.9h-6.8l-1.9-9.4c0-0.4-0.4-0.6-0.8-0.6h-8.5V49.5z"/>
						</g>
						<g id="g3504" transform="translate(407.0391,197.3071)">
							<path id="path3506" class="st18" d="M-285.2,28.1h4.5c3.7,0,4.8-0.7,5.2-1.3c0.8-0.7,0.8-2.4,0.4-4.6
								c-0.6-2.6-1.5-4.2-2.9-5.3c-1.4-1.1-3.7-1.5-6.8-1.5h-3.3L-285.2,28.1z M-277.5,37.1h-16.4c-0.8,0-1.4-0.6-1.5-1.3l-7.7-37.4
								c0-0.4,0-0.9,0.4-1.3c0.4-0.4,0.8-0.6,1.2-0.6h8.5c0.8,0,1.4,0.6,1.5,1.3l1.7,8.6h6c3.5,0,6.2,0.4,8.5,1.1
								c2.3,0.7,4.5,1.8,6.4,3.7c1.5,1.3,2.9,2.9,3.9,4.6s1.7,3.5,2.1,5.5c1,5,0.2,8.8-2.5,11.7C-267.8,35.8-271.9,37.1-277.5,37.1
								 M-289.7,14.2h5.2c3.5,0,6,0.6,7.7,1.8s2.9,3.3,3.5,6.2c0.6,2.8,0.4,4.8-0.8,5.9c-1.2,1.1-3.3,1.7-6.6,1.7h-5.8L-289.7,14.2
								 M-277.5,35.7c5,0,8.5-1.3,10.8-3.7c2.3-2.4,2.9-5.9,2.1-10.3c-0.4-1.8-1-3.5-1.9-5c-1-1.5-2.1-2.9-3.5-4.2
								c-1.7-1.5-3.7-2.6-5.8-3.3c-2.1-0.7-4.8-0.9-7.9-0.9h-7.4l-2.1-9.9h-8.5l7.7,37.4h16.4"/>
						</g>
					</g>
				</g>
			</g>
		</g>
	</g>
</g>
<g id="Calque_5" class="st0">
	<g class="st7">
		<path class="st19" d="M362.8,69.5c0-26.5-21.5-47.9-47.9-47.9c-24.2,0-44.2,17.9-47.4,41.2c-0.3-0.2-0.5-0.3-0.5-0.3
			c-39.2-17.7-72.2,13.6-72.2,13.6l-87.3,87.8l34.5,33.2l70.3-69.1c32.8-32.8,50.7-10.6,50.7-10.6c24.7,20.9,0.9,45.6,0.9,45.6
			l35.4,34.1c28.9-31.2,30.6-58.4,21.8-80.1C344.5,114.1,362.8,94,362.8,69.5"/>
		<path class="st20" d="M321.3,290c0.2-0.3,0.3-0.5,0.3-0.5c17.7-39.2-13.6-72.2-13.6-72.2l-87.8-87.3l-33.2,34.5l69.1,70.3
			c32.8,32.8,10.6,50.7,10.6,50.7c-20.9,24.7-45.6,0.9-45.6,0.9l-34.1,35.4c31.2,28.9,58.4,30.6,80.1,21.8
			c3,23.6,23.1,41.9,47.5,41.9c26.5,0,47.9-21.5,47.9-47.9C362.5,313.3,344.6,293.3,321.3,290"/>
		<path class="st21" d="M220.9,208.2l-70.3,69.1c-32.8,32.8-50.7,10.6-50.7,10.6c-24.7-20.9-0.9-45.6-0.9-45.6l-35.4-34.1
			c-28.9,31.2-30.6,58.4-21.8,80.1C18.3,291.2,0,311.4,0,335.8c0,26.5,21.5,47.9,47.9,47.9c24.2,0,44.2-17.9,47.4-41.2
			c0.3,0.2,0.5,0.3,0.5,0.3c39.2,17.7,72.2-13.6,72.2-13.6l87.3-87.8L220.9,208.2"/>
		<path class="st22" d="M106.8,170.6c-32.8-32.8-10.6-50.7-10.6-50.7c20.9-24.7,45.6-0.9,45.6-0.9l34.1-35.4
			c-31.2-28.9-58.4-30.6-80.1-21.8C92.8,38.3,72.7,20,48.3,20C21.8,20,0.3,41.5,0.3,67.9c0,24.2,17.9,44.2,41.2,47.4
			c-0.2,0.3-0.3,0.5-0.3,0.5c-17.7,39.2,13.6,72.2,13.6,72.2l87.8,87.3l33.2-34.5L106.8,170.6"/>
	</g>
</g>
<g id="Calque_7">
	<circle class="st18" cx="181.4" cy="205" r="174.7"/>
</g>
<g id="Calque_6">
	<path id="Layer_3" class="st23" d="M-27.1-3.6h417v417h-417C-27.1,413.5-27.1-3.6-27.1-3.6z"/>
	<g id="logosandtypes_com_1_">
		<path class="st24" d="M31,204.1c0,60.1,34.8,111.8,85.4,136.5l-72-198.5C35.7,161.3,31,181.9,31,204.1z M285.4,196.6
			c0-18.6-7-31.7-12.5-41.7c-7.8-12.5-15-23.1-15-35.6c0-13.9,10.6-26.7,25.6-26.7h1.9c-27.2-24.7-62.8-39.8-102.6-39.8
			c-53.1,0-99.5,27.2-126.8,68.4h9.7c15.8,0,40.6-1.9,40.6-1.9c8.1-0.3,9.5,11.4,0.8,12.5c0,0-8.1,0.8-17.5,1.7l55,164.6l33.1-99.5
			l-23.6-64.8c-8.1-0.3-15.8-1.7-15.8-1.7c-8.1-0.3-7.2-13.1,0.8-12.5c0,0,25,1.9,40,1.9c15.8,0,40.6-1.9,40.6-1.9
			c8.1-0.3,9.5,11.4,0.8,12.5c0,0-8.1,0.8-17.5,1.7L257.9,297l15-50.6C280.4,224.4,285.4,209.4,285.4,196.6L285.4,196.6z"/>
		<path class="st24" d="M185.6,217.2L140,349.5c13.9,4.2,28.1,6.1,42.8,6.1c17.8,0,34.5-3.3,50.3-8.6c-0.3-0.8-0.8-1.1-1.1-1.9
			L185.6,217.2z M316,131.3c0.8,4.7,1.1,10,1.1,15.8c0,15.3-2.8,32.8-11.4,54.2l-46.2,134c45-26.4,75.3-75.3,75.3-131.2
			C334.6,178,327.9,152.7,316,131.3z"/>
		<path class="st24" d="M182.8,27C85.2,27,5.7,106.5,5.7,204.1s79.5,177.1,177.1,177.1s177.1-79.5,177.1-177.1S280.4,27,182.8,27z
			 M182.8,372.6c-93.1,0-169-75.6-169-169s75.9-168.8,169-168.8s169,75.6,169,169S275.9,372.6,182.8,372.6z"/>
	</g>
</g>
</svg>
